# Blender 4.5.3 LTS
# www.blender.org
o Cube
v -0.437500 -0.437500 0.437500
v -0.437500 -0.500000 0.437500
v -0.437500 -0.437500 0.500000
v -0.437500 -0.500000 0.500000
v -0.500000 -0.437500 0.437500
v -0.500000 -0.500000 0.437500
v -0.500000 -0.437500 0.500000
v -0.500000 -0.500000 0.500000
v 0.500000 -0.437500 -0.089545
v 0.500000 -0.500000 -0.089545
v 0.500000 -0.437500 0.500000
v 0.500000 -0.500000 0.500000
v 0.437500 -0.437500 -0.089545
v 0.437500 -0.500000 -0.089545
v 0.437500 -0.437500 0.500000
v 0.437500 -0.500000 0.500000
v -0.500623 -0.466875 0.464817
v -0.500623 -0.498125 0.464817
v -0.390904 -0.466875 -0.450000
v -0.390904 -0.498125 -0.450000
v -0.430623 -0.466875 0.464817
v -0.430623 -0.498125 0.464817
v -0.320904 -0.466875 -0.450000
v -0.320904 -0.498125 -0.450000
v -0.437685 -0.466875 0.437143
v -0.437685 -0.498125 0.437143
v 0.437500 -0.466875 0.022896
v 0.437500 -0.498125 0.022896
v -0.437685 -0.466875 0.500740
v -0.437685 -0.498125 0.500740
v 0.437500 -0.466875 0.122896
v 0.437500 -0.498125 0.122896
v -0.493520 -0.466875 0.443543
v -0.493520 -0.498125 0.443543
v 0.253857 -0.465751 -0.257512
v 0.253436 -0.496993 -0.258088
v -0.449514 -0.466875 0.495986
v -0.449514 -0.498125 0.495986
v 0.324447 -0.468007 -0.186716
v 0.324026 -0.499249 -0.187293
v -0.492350 -0.466476 0.442803
v -0.493105 -0.497717 0.442953
v -0.081104 -0.466875 -0.450000
v -0.081104 -0.498125 -0.450000
v -0.448607 -0.467283 0.495273
v -0.449362 -0.498523 0.495422
v 0.018896 -0.466875 -0.450000
v 0.018896 -0.498125 -0.450000
v 0.096880 -0.437500 -0.499856
v 0.096880 -0.500000 -0.499856
v 0.499860 -0.437500 -0.089519
v 0.499860 -0.500000 -0.089519
v 0.052685 -0.437500 -0.455662
v 0.052685 -0.500000 -0.455662
v 0.455666 -0.437500 -0.045325
v 0.455666 -0.500000 -0.045325
v -0.500000 -0.437500 -0.500000
v -0.500000 -0.500000 -0.500000
v 0.096909 -0.437500 -0.500000
v 0.096909 -0.500000 -0.500000
v -0.500000 -0.437500 -0.450000
v -0.500000 -0.500000 -0.450000
v 0.096909 -0.437500 -0.450000
v 0.096909 -0.500000 -0.450000
v -0.443205 -0.466875 0.434683
v -0.443205 -0.498125 0.434683
v 0.438504 -0.466875 0.326067
v 0.438504 -0.498125 0.326067
v -0.443205 -0.466875 0.501905
v -0.443205 -0.498125 0.501905
v 0.438504 -0.466875 0.393290
v 0.438504 -0.498125 0.393290
vn -0.0000 1.0000 -0.0000
vn -0.0000 -0.0000 1.0000
vn -1.0000 -0.0000 -0.0000
vn -0.0000 -1.0000 -0.0000
vn 1.0000 -0.0000 -0.0000
vn -0.0000 -0.0000 -1.0000
vn 0.9929 -0.0000 0.1191
vn -0.9929 -0.0000 -0.1191
vn 0.3964 -0.0000 0.9181
vn -0.4278 -0.0000 -0.9039
vn 0.0090 0.9999 0.0099
vn 0.7082 0.0035 -0.7060
vn 0.6617 -0.0114 0.7497
vn -0.0090 -0.9999 -0.0099
vn -0.6844 0.0113 -0.7291
vn -0.7660 -0.0000 0.6428
vn 0.0048 1.0000 0.0023
vn 0.8962 -0.0098 0.4436
vn -0.0048 -1.0000 -0.0023
vn -0.9081 0.0100 -0.4186
vn -0.7677 0.0216 0.6404
vn 0.7071 -0.0000 0.7071
vn -0.7135 -0.0000 0.7007
vn 0.7135 -0.0000 -0.7007
vn -0.7071 -0.0000 -0.7071
vn 0.1223 -0.0000 0.9925
vn -0.1223 -0.0000 -0.9925
vt 0.817339 1.000094
vt 0.755128 1.000094
vt 0.755128 0.004713
vt 0.817339 0.004713
vt -0.165600 0.937882
vt -0.227812 0.937882
vt -0.227812 0.875671
vt -0.165600 0.875671
vt 0.568494 1.000094
vt 0.506282 1.000094
vt 0.506282 0.004713
vt 0.568494 0.004713
vt 0.879551 1.000094
vt 0.879551 0.004713
vt 0.630705 1.000094
vt 0.568494 1.000094
vt 0.568494 0.004713
vt 0.630705 0.004713
vt -0.103389 0.937882
vt -0.103389 0.875671
vt -0.041178 0.875671
vt -0.041178 0.937882
vt 0.941762 1.000094
vt 0.941762 0.004713
vt -0.227812 0.937882
vt -0.290023 0.937882
vt -0.290023 0.875671
vt -0.227812 0.875671
vt 0.692916 1.000094
vt 0.630705 1.000094
vt 0.630705 0.004713
vt 0.692916 0.004713
vt 1.003973 1.000094
vt 1.003973 0.004713
vt 0.755128 1.000094
vt 0.692917 1.000094
vt 0.692917 0.004713
vt -0.103389 0.937882
vt -0.165600 0.937882
vt -0.165600 0.875671
vt -0.103389 0.875671
vt 0.207668 0.004713
vt 0.307206 0.004713
vt 0.307206 0.875671
vt 0.207668 0.875671
vt 0.021033 0.975209
vt -0.010072 0.975209
vt -0.010072 0.875671
vt 0.021033 0.875671
vt 1.035079 0.875671
vt 1.003973 0.875671
vt 1.003973 0.004713
vt 1.035079 0.004713
vt 0.506282 0.875671
vt 0.406744 0.875671
vt 0.406744 0.004713
vt 0.506282 0.004713
vt 1.066184 0.875671
vt 1.035079 0.004713
vt 1.066185 0.004713
vt 0.145456 0.975209
vt 0.114350 0.975209
vt 0.114350 0.875671
vt 0.145456 0.875671
vt 0.307206 0.004713
vt 0.406744 0.004713
vt 0.406744 0.875671
vt 0.052139 0.975209
vt 0.021033 0.975209
vt 0.021033 0.875671
vt 0.052139 0.875671
vt 1.097290 0.875671
vt 1.097290 0.004713
vt -0.190485 0.875671
vt -0.290023 0.875671
vt -0.290023 0.004713
vt -0.190485 0.004713
vt 1.128396 0.875671
vt 1.128396 0.004713
vt 0.207667 0.975209
vt 0.176561 0.975209
vt 0.176561 0.875671
vt 0.207667 0.875671
vt 0.108130 0.004713
vt 0.207668 0.004713
vt 0.108130 0.875671
vt -0.010072 0.975209
vt -0.041178 0.975209
vt -0.041178 0.875671
vt -0.010072 0.875671
vt 1.159501 0.875671
vt 1.128396 0.875671
vt 1.159501 0.004713
vt -0.090947 0.875671
vt -0.190485 0.875671
vt -0.190485 0.004713
vt -0.090947 0.004713
vt 1.190607 0.875671
vt 1.159501 0.875671
vt 1.190607 0.004713
vt 0.176561 0.975209
vt 0.145456 0.975209
vt 0.145456 0.875671
vt 0.176561 0.875671
vt 0.008591 0.875671
vt -0.090947 0.875671
vt -0.090947 0.004713
vt 0.008592 0.004713
vt 0.083245 0.975209
vt 0.052139 0.875671
vt 0.083245 0.875671
vt 1.221713 0.875671
vt 1.221713 0.004713
vt 0.108130 0.875671
vt 0.008592 0.875671
vt 0.008592 0.004713
vt 1.252818 0.875671
vt 1.252818 0.004713
vt 0.114350 0.975209
vt 0.083245 0.975209
vt 0.114350 0.875671
s 0
g Cube_Rails
f 1/1/1 5/2/1 7/3/1 3/4/1
f 4/5/2 3/6/2 7/7/2 8/8/2
f 8/9/3 7/10/3 5/11/3 6/12/3
f 6/13/4 2/1/4 4/4/4 8/14/4
f 2/15/5 1/16/5 3/17/5 4/18/5
f 6/19/6 5/20/6 1/21/6 2/22/6
f 9/23/1 13/13/1 15/14/1 11/24/1
f 12/25/2 11/26/2 15/27/2 16/28/2
f 16/29/3 15/30/3 13/31/3 14/32/3
f 14/33/4 10/23/4 12/24/4 16/34/4
f 10/35/5 9/36/5 11/37/5 12/3/5
f 14/38/6 13/39/6 9/40/6 10/41/6
g Cube_Ties
f 17/42/1 21/43/1 23/44/1 19/45/1
f 20/46/6 19/47/6 23/48/6 24/49/6
f 24/50/7 23/51/7 21/52/7 22/53/7
f 22/54/4 18/55/4 20/56/4 24/57/4
f 18/58/8 17/50/8 19/59/8 20/60/8
f 22/61/2 21/62/2 17/63/2 18/64/2
f 25/65/1 29/66/1 31/67/1 27/44/1
f 28/68/5 27/69/5 31/70/5 32/71/5
f 32/72/9 31/58/9 29/60/9 30/73/9
f 30/74/4 26/75/4 28/76/4 32/77/4
f 26/78/10 25/72/10 27/73/10 28/79/10
f 30/80/3 29/81/3 25/82/3 26/83/3
f 33/84/11 37/85/11 39/45/11 35/86/11
f 36/87/12 35/88/12 39/89/12 40/90/12
f 40/91/13 39/92/13 37/79/13 38/93/13
f 38/94/14 34/95/14 36/96/14 40/97/14
f 34/98/15 33/99/15 35/93/15 36/100/15
f 38/101/16 37/102/16 33/103/16 34/104/16
f 41/105/17 45/106/17 47/107/17 43/108/17
f 44/109/6 43/68/6 47/110/6 48/111/6
f 48/112/18 47/98/18 45/100/18 46/113/18
f 46/114/19 42/115/19 44/116/19 48/84/19
f 42/117/20 41/112/20 43/113/20 44/118/20
f 46/119/21 45/120/21 41/111/21 42/121/21
g Cube_Rails
f 49/23/1 53/13/1 55/14/1 51/24/1
f 52/25/22 51/26/22 55/27/22 56/28/22
f 56/29/23 55/30/23 53/31/23 54/32/23
f 54/33/4 50/23/4 52/24/4 56/34/4
f 50/35/24 49/36/24 51/37/24 52/3/24
f 54/38/25 53/39/25 49/40/25 50/41/25
f 57/23/1 61/13/1 63/14/1 59/24/1
f 60/25/5 59/26/5 63/27/5 64/28/5
f 64/29/2 63/30/2 61/31/2 62/32/2
f 62/33/4 58/23/4 60/24/4 64/34/4
f 58/35/6 57/36/6 59/37/6 60/3/6
f 62/38/3 61/39/3 57/40/3 58/41/3
g Cube_Ties
f 65/42/1 69/43/1 71/44/1 67/45/1
f 68/46/5 67/47/5 71/48/5 72/49/5
f 72/50/26 71/51/26 69/52/26 70/53/26
f 70/54/4 66/55/4 68/56/4 72/57/4
f 66/58/27 65/50/27 67/59/27 68/60/27
f 70/61/3 69/62/3 65/63/3 66/64/3
