# Blender 4.5.3 LTS
# www.blender.org
o Cube
v -0.437500 -0.437500 -0.500000
v -0.437500 -0.500000 -0.500000
v -0.437500 -0.437500 0.500000
v -0.437500 -0.500000 0.500000
v -0.500000 -0.437500 -0.500000
v -0.500000 -0.500000 -0.500000
v -0.500000 -0.437500 0.500000
v -0.500000 -0.500000 0.500000
v 0.500000 -0.437500 -0.500000
v 0.500000 -0.500000 -0.500000
v 0.500000 -0.437500 0.500000
v 0.500000 -0.500000 0.500000
v 0.437500 -0.437500 -0.500000
v 0.437500 -0.500000 -0.500000
v 0.437500 -0.437500 0.500000
v 0.437500 -0.500000 0.500000
v -0.437500 -0.466875 0.075000
v -0.437500 -0.498125 0.075000
v 0.437500 -0.466875 0.075000
v 0.437500 -0.498125 0.075000
v -0.437500 -0.466875 0.175000
v -0.437500 -0.498125 0.175000
v 0.437500 -0.466875 0.175000
v 0.437500 -0.498125 0.175000
v -0.437500 -0.466875 0.325000
v -0.437500 -0.498125 0.325000
v 0.437500 -0.466875 0.325000
v 0.437500 -0.498125 0.325000
v -0.437500 -0.466875 0.425000
v -0.437500 -0.498125 0.425000
v 0.437500 -0.466875 0.425000
v 0.437500 -0.498125 0.425000
v -0.437500 -0.466875 -0.175000
v -0.437500 -0.498125 -0.175000
v 0.437500 -0.466875 -0.175000
v 0.437500 -0.498125 -0.175000
v -0.437500 -0.466875 -0.075000
v -0.437500 -0.498125 -0.075000
v 0.437500 -0.466875 -0.075000
v 0.437500 -0.498125 -0.075000
v -0.437500 -0.466875 -0.425000
v -0.437500 -0.498125 -0.425000
v 0.437500 -0.466875 -0.425000
v 0.437500 -0.498125 -0.425000
v -0.437500 -0.466875 -0.325000
v -0.437500 -0.498125 -0.325000
v 0.437500 -0.466875 -0.325000
v 0.437500 -0.498125 -0.325000
vn -0.0000 1.0000 -0.0000
vn -0.0000 -0.0000 1.0000
vn -1.0000 -0.0000 -0.0000
vn -0.0000 -1.0000 -0.0000
vn 1.0000 -0.0000 -0.0000
vn -0.0000 -0.0000 -1.0000
vt 0.817339 1.000094
vt 0.755128 1.000094
vt 0.755128 0.004713
vt 0.817339 0.004713
vt -0.165600 0.937882
vt -0.227812 0.937882
vt -0.227812 0.875671
vt -0.165600 0.875671
vt 0.568494 1.000094
vt 0.506282 1.000094
vt 0.506282 0.004713
vt 0.568494 0.004713
vt 0.879551 1.000094
vt 0.879551 0.004713
vt 0.630705 1.000094
vt 0.568494 1.000094
vt 0.568494 0.004713
vt 0.630705 0.004713
vt -0.103389 0.937882
vt -0.103389 0.875671
vt -0.041178 0.875671
vt -0.041178 0.937882
vt 0.941762 1.000094
vt 0.941762 0.004713
vt -0.227812 0.937882
vt -0.290023 0.937882
vt -0.290023 0.875671
vt -0.227812 0.875671
vt 0.692916 1.000094
vt 0.630705 1.000094
vt 0.630705 0.004713
vt 0.692916 0.004713
vt 1.003973 1.000094
vt 1.003973 0.004713
vt 0.755128 1.000094
vt 0.692917 1.000094
vt 0.692917 0.004713
vt -0.103389 0.937882
vt -0.165600 0.937882
vt -0.165600 0.875671
vt -0.103389 0.875671
vt 0.207668 0.004713
vt 0.307206 0.004713
vt 0.307206 0.875671
vt 0.207668 0.875671
vt 0.021033 0.975209
vt -0.010072 0.975209
vt -0.010072 0.875671
vt 0.021033 0.875671
vt 1.035079 0.875671
vt 1.003973 0.875671
vt 1.003973 0.004713
vt 1.035079 0.004713
vt 0.506282 0.875671
vt 0.406744 0.875671
vt 0.406744 0.004713
vt 0.506282 0.004713
vt 1.066184 0.875671
vt 1.035079 0.004713
vt 1.066185 0.004713
vt 0.145456 0.975209
vt 0.114350 0.975209
vt 0.114350 0.875671
vt 0.145456 0.875671
vt 0.307206 0.004713
vt 0.406744 0.004713
vt 0.406744 0.875671
vt 0.052139 0.975209
vt 0.021033 0.975209
vt 0.021033 0.875671
vt 0.052139 0.875671
vt 1.097290 0.875671
vt 1.097290 0.004713
vt -0.190485 0.875671
vt -0.290023 0.875671
vt -0.290023 0.004713
vt -0.190485 0.004713
vt 1.128396 0.875671
vt 1.128396 0.004713
vt 0.207667 0.975209
vt 0.176561 0.975209
vt 0.176561 0.875671
vt 0.207667 0.875671
vt 0.108130 0.004713
vt 0.207668 0.004713
vt 0.108130 0.875671
vt -0.010072 0.975209
vt -0.041178 0.975209
vt -0.041178 0.875671
vt -0.010072 0.875671
vt 1.159501 0.875671
vt 1.128396 0.875671
vt 1.159501 0.004713
vt -0.090947 0.875671
vt -0.190485 0.875671
vt -0.190485 0.004713
vt -0.090947 0.004713
vt 1.190607 0.875671
vt 1.159501 0.875671
vt 1.190607 0.004713
vt 0.176561 0.975209
vt 0.145456 0.975209
vt 0.145456 0.875671
vt 0.176561 0.875671
vt 0.008591 0.875671
vt -0.090947 0.875671
vt -0.090947 0.004713
vt 0.008592 0.004713
vt 0.083245 0.975209
vt 0.052139 0.875671
vt 0.083245 0.875671
vt 1.221713 0.875671
vt 1.221713 0.004713
vt 0.108130 0.875671
vt 0.008592 0.875671
vt 0.008592 0.004713
vt 1.252818 0.875671
vt 1.252818 0.004713
vt 0.114350 0.975209
vt 0.083245 0.975209
vt 0.114350 0.875671
s 0
g Cube_Rails
f 1/1/1 5/2/1 7/3/1 3/4/1
f 4/5/2 3/6/2 7/7/2 8/8/2
f 8/9/3 7/10/3 5/11/3 6/12/3
f 6/13/4 2/1/4 4/4/4 8/14/4
f 2/15/5 1/16/5 3/17/5 4/18/5
f 6/19/6 5/20/6 1/21/6 2/22/6
f 9/23/1 13/13/1 15/14/1 11/24/1
f 12/25/2 11/26/2 15/27/2 16/28/2
f 16/29/3 15/30/3 13/31/3 14/32/3
f 14/33/4 10/23/4 12/24/4 16/34/4
f 10/35/5 9/36/5 11/37/5 12/3/5
f 14/38/6 13/39/6 9/40/6 10/41/6
g Cube_Ties
f 17/42/1 21/43/1 23/44/1 19/45/1
f 20/46/5 19/47/5 23/48/5 24/49/5
f 24/50/2 23/51/2 21/52/2 22/53/2
f 22/54/4 18/55/4 20/56/4 24/57/4
f 18/58/6 17/50/6 19/59/6 20/60/6
f 22/61/3 21/62/3 17/63/3 18/64/3
f 25/65/1 29/66/1 31/67/1 27/44/1
f 28/68/5 27/69/5 31/70/5 32/71/5
f 32/72/2 31/58/2 29/60/2 30/73/2
f 30/74/4 26/75/4 28/76/4 32/77/4
f 26/78/6 25/72/6 27/73/6 28/79/6
f 30/80/3 29/81/3 25/82/3 26/83/3
f 33/84/1 37/85/1 39/45/1 35/86/1
f 36/87/5 35/88/5 39/89/5 40/90/5
f 40/91/2 39/92/2 37/79/2 38/93/2
f 38/94/4 34/95/4 36/96/4 40/97/4
f 34/98/6 33/99/6 35/93/6 36/100/6
f 38/101/3 37/102/3 33/103/3 34/104/3
f 41/105/1 45/106/1 47/107/1 43/108/1
f 44/109/5 43/68/5 47/110/5 48/111/5
f 48/112/2 47/98/2 45/100/2 46/113/2
f 46/114/4 42/115/4 44/116/4 48/84/4
f 42/117/6 41/112/6 43/113/6 44/118/6
f 46/119/3 45/120/3 41/111/3 42/121/3
