# Blender 4.5.3 LTS
# www.blender.org
o Cube
v -0.500000 -0.455815 0.500000
v 0.500000 -0.455815 0.500000
v -0.500000 0.403815 -0.403815
v -0.417128 0.500000 -0.417128
v -0.379445 0.379445 -0.500000
v -0.500000 -0.455815 -0.403815
v -0.379445 -0.431446 -0.500000
v 0.379445 0.379445 -0.500000
v 0.417128 0.500000 -0.417128
v 0.500000 0.403815 -0.403815
v 0.379445 -0.431446 -0.500000
v 0.500000 -0.455815 -0.403815
v -0.417128 0.500000 0.417128
v -0.500000 0.403815 0.500000
v 0.417128 0.500000 0.417128
v 0.500000 0.403815 0.500000
v -0.448000 0.448000 -0.500000
v -0.448000 -0.500000 -0.500000
v 0.448000 -0.500000 -0.500000
v 0.448000 0.448000 -0.500000
v -0.379445 0.379445 -0.460272
v -0.379445 -0.431446 -0.460272
v 0.379445 -0.431446 -0.460272
v 0.379445 0.379445 -0.460272
v -0.170545 0.340963 -0.460272
v -0.170545 -0.267325 -0.460272
v 0.170545 -0.267325 -0.460272
v 0.170545 0.340963 -0.460272
v -0.170545 0.307674 -0.389032
v -0.170545 -0.106590 -0.389032
v 0.170545 -0.106590 -0.389032
v 0.170545 0.307674 -0.389032
v -0.448272 0.446804 -0.382508
v -0.448272 -0.430832 -0.382508
v 0.448272 -0.430832 -0.382508
v 0.448272 0.446804 -0.382508
v -0.427766 0.157302 0.460268
v -0.427766 0.075580 0.460268
v 0.427766 0.075580 0.460268
v 0.427766 0.157302 0.460268
v 0.393934 -0.119618 -0.346633
v -0.336840 -0.115893 -0.351945
v 0.436313 -0.139837 0.379673
v -0.444897 -0.132170 0.449201
v -0.029998 -0.152678 -0.299102
v -0.005085 -0.093891 0.427366
v -0.408501 -0.171262 0.067628
v 0.395054 -0.125329 0.045290
v 0.012601 -0.086559 0.027382
v -0.211171 -0.131630 -0.336705
v -0.132891 -0.135048 0.398155
v -0.398376 -0.134156 -0.154214
v 0.399367 -0.127421 -0.148239
v 0.208328 -0.125395 -0.345788
v 0.173681 -0.141476 0.426363
v -0.364523 -0.171863 0.222272
v 0.444324 -0.156126 0.223764
v 0.012678 -0.116804 0.200109
v -0.013783 -0.111823 -0.116812
v 0.233840 -0.119031 0.069484
v -0.225994 -0.116803 0.017034
v -0.216965 -0.177818 -0.100983
v 0.192031 -0.103839 -0.142705
v 0.205221 -0.150124 0.209560
v -0.145168 -0.114756 0.177990
v -0.294926 -0.116797 -0.333631
v -0.299811 -0.121683 0.413223
v -0.379916 -0.089784 -0.200878
v 0.404201 -0.106290 -0.236215
v 0.114904 -0.134322 -0.365816
v 0.101883 -0.124914 0.415491
v -0.365840 -0.132714 0.160699
v 0.390891 -0.174815 0.105885
v -0.036965 -0.102222 0.282365
v 0.011157 -0.145632 -0.050604
v 0.277156 -0.113403 0.030504
v -0.092583 -0.133999 0.034622
v -0.093346 -0.141337 -0.299189
v -0.073409 -0.144865 0.418619
v -0.400325 -0.126064 -0.055094
v 0.356736 -0.088774 -0.097298
v 0.301159 -0.126082 -0.338050
v 0.329159 -0.178855 0.391933
v -0.434830 -0.116708 0.273272
v 0.429983 -0.095084 0.275391
v 0.005868 -0.096260 0.108881
v -0.021208 -0.128322 -0.206134
v 0.116517 -0.088642 0.066308
v -0.300957 -0.109258 0.038415
v -0.195983 -0.104856 -0.103211
v -0.161408 -0.110871 -0.269397
v -0.115384 -0.077547 -0.140648
v -0.266656 -0.167350 -0.178234
v 0.205420 -0.133388 -0.099933
v 0.134554 -0.130814 -0.244648
v 0.346565 -0.082183 -0.145334
v 0.109843 -0.126547 -0.151412
v 0.187308 -0.120897 0.356140
v 0.199038 -0.126979 0.135205
v 0.322498 -0.162420 0.238396
v 0.137810 -0.149591 0.228301
v -0.219433 -0.073514 0.277178
v -0.200616 -0.135661 0.093228
v -0.103301 -0.174515 0.202793
v -0.276928 -0.111270 0.176675
v -0.325692 -0.133215 0.164923
v -0.113440 -0.131824 0.129458
v -0.095580 -0.131177 0.292792
v 0.074750 -0.104969 0.121697
v 0.258018 -0.128617 0.098810
v 0.271307 -0.150783 0.291872
v 0.140243 -0.178416 -0.244459
v 0.286720 -0.122813 -0.268585
v 0.327041 -0.118929 -0.062011
v -0.292451 -0.105395 -0.220344
v -0.155034 -0.127316 -0.239131
v -0.102089 -0.126869 -0.017561
v -0.327014 -0.072195 -0.032479
v 0.125768 -0.117443 -0.024005
v 0.070374 -0.112284 0.314693
v -0.248166 -0.148530 0.309041
v -0.448272 0.446804 0.460268
v -0.448272 -0.430832 0.460268
v 0.448272 -0.430832 0.460268
v 0.448272 0.446804 0.460268
v -0.427766 0.128647 -0.431217
v -0.427766 0.104234 -0.431217
v 0.427766 0.104234 -0.431217
v 0.427766 0.128647 -0.431217
v 0.448000 0.500000 -0.448000
v 0.448000 0.500000 0.448000
v -0.448000 0.500000 -0.448000
v -0.448000 0.500000 0.448000
v 0.376695 0.473953 -0.376695
v 0.376695 0.473953 0.376695
v -0.376695 0.473953 -0.376695
v -0.376695 0.473953 0.376695
v -0.500000 -0.500000 0.500000
v 0.500000 -0.500000 0.500000
v -0.500000 -0.500000 -0.448000
v -0.500000 0.448000 -0.448000
v 0.500000 0.448000 -0.448000
v 0.500000 -0.500000 -0.448000
v 0.500000 0.448000 0.500000
v -0.500000 0.448000 0.500000
v -0.479495 -0.438188 0.481467
v -0.479495 0.386188 0.481467
v 0.479495 0.386188 0.481467
v 0.479495 -0.438188 0.481467
v -0.479495 -0.438188 -0.385282
v -0.479495 0.386188 -0.385282
v 0.479495 0.386188 -0.385282
v 0.479495 -0.438188 -0.385282
vn -0.5774 0.5774 -0.5774
vn 0.5774 0.5774 -0.5774
vn -0.7071 -0.0000 -0.7071
vn 0.7071 -0.0000 -0.7071
vn 0.7071 0.7071 -0.0000
vn -0.0000 0.7071 -0.7071
vn -0.0000 0.7071 0.7071
vn -0.7071 0.7071 -0.0000
vn 0.6519 -0.7583 -0.0000
vn -0.0000 1.0000 -0.0000
vn 0.5416 0.8407 -0.0000
vn -0.0000 -1.0000 -0.0000
vn -0.6519 -0.7583 -0.0000
vn 0.6519 0.7583 -0.0000
vn -0.0000 -0.0000 -1.0000
vn -1.0000 -0.0000 -0.0000
vn 1.0000 -0.0000 -0.0000
vn -0.0000 0.0201 0.9998
vn -0.0000 0.4052 -0.9142
vn -0.0000 -0.9060 -0.4233
vn -0.0235 -0.0000 0.9997
vn -0.0000 -0.0468 0.9989
vn 0.0235 -0.0000 0.9997
vn -0.0000 -0.9995 -0.0321
vn 0.9899 0.1406 -0.0178
vn 0.0641 0.9976 -0.0264
vn 0.0375 0.1593 0.9865
vn 0.0068 0.1555 -0.9878
vn -0.9829 0.1714 -0.0670
vn 0.1911 0.9810 -0.0321
vn 0.0324 0.8866 -0.4614
vn -0.4894 0.7854 0.3789
vn 0.1143 0.9858 0.1227
vn -0.6125 0.7904 0.0144
vn 0.2835 0.6261 0.7264
vn -0.1210 0.9890 -0.0850
vn -0.1134 0.9663 -0.2310
vn 0.1269 0.9339 -0.3341
vn 0.3334 0.9258 0.1779
vn 0.0865 0.9695 0.2295
vn 0.1487 0.9537 0.2616
vn 0.3162 0.9373 0.1464
vn 0.4160 0.9081 -0.0474
vn -0.2820 0.8732 0.3975
vn -0.0713 0.9379 -0.3394
vn 0.1433 0.9684 0.2041
vn -0.3885 0.9210 -0.0295
vn -0.3108 0.8761 0.3686
vn -0.3483 0.9373 -0.0145
vn 0.0368 0.9947 0.0961
vn -0.5277 0.8406 0.1219
vn -0.4340 0.8168 -0.3802
vn 0.5953 0.7905 -0.1440
vn 0.1194 0.9439 0.3078
vn 0.1820 0.9356 0.3026
vn 0.0049 0.9821 0.1885
vn 0.1544 0.9879 -0.0127
vn 0.1611 0.8701 0.4658
vn 0.1216 0.9687 0.2164
vn -0.2696 0.8772 0.3973
vn -0.2323 0.7262 -0.6470
vn 0.1801 0.9741 -0.1368
vn -0.6497 0.7318 -0.2057
vn -0.5509 0.8320 0.0652
vn 0.1268 0.9894 0.0709
vn 0.1880 0.9723 -0.1387
vn -0.0977 0.9908 -0.0937
vn -0.0300 0.9995 -0.0029
vn -0.1045 0.9866 0.1251
vn 0.2181 0.9720 0.0872
vn -0.1722 0.8753 0.4518
vn -0.0061 0.8532 0.5215
vn 0.0471 0.9810 -0.1883
vn 0.1246 0.9848 -0.1206
vn 0.2251 0.8997 -0.3739
vn 0.0963 0.9728 -0.2107
vn 0.3156 0.9225 -0.2224
vn -0.1852 0.9180 -0.3507
vn 0.2386 0.9060 0.3497
vn -0.3537 0.9317 -0.0819
vn 0.2895 0.9257 0.2434
vn 0.1844 0.6628 -0.7258
vn -0.0944 0.9085 -0.4071
vn 0.1643 0.9710 -0.1735
vn 0.0075 0.9930 0.1180
vn -0.0513 0.9892 0.1371
vn 0.0803 0.9800 0.1819
vn 0.0784 0.9658 -0.2471
vn 0.2162 0.9652 -0.1469
vn -0.2545 0.9491 0.1857
vn -0.4207 0.9019 -0.0982
vn -0.1078 0.9868 -0.1207
vn -0.0000 0.9995 -0.0321
vn -0.0000 0.8407 0.5416
vn -0.0000 0.8407 -0.5416
vn -0.5416 0.8407 -0.0000
vn -0.0000 -0.0000 1.0000
vn -0.6705 -0.0000 0.7419
vn -0.6519 0.7583 -0.0000
vn -0.0000 -0.7246 0.6892
vn 0.6705 -0.0000 0.7419
vn -0.0000 0.7246 0.6892
vt 1.014503 -0.969636
vt 1.067335 -1.022432
vt 1.067312 -0.967650
vt 1.977658 -0.967650
vt 1.977682 -1.022432
vt 2.030515 -0.969636
vt 1.014503 -0.969472
vt 1.014503 -0.006468
vt 0.961277 -0.005468
vt 0.961277 -0.968472
vt 2.942150 0.047786
vt 1.979088 0.047786
vt 1.979913 -0.005152
vt 2.942974 -0.005152
vt 1.014503 0.957473
vt 1.923910 0.956404
vt 1.979088 1.010521
vt 1.016904 1.011652
vt 1.923909 0.046362
vt 1.979088 -0.005152
vt 0.051351 -1.022432
vt 0.961672 -1.022303
vt -0.001875 -0.968608
vt 1.971282 1.011652
vt 1.971282 1.926006
vt 1.950448 1.908913
vt 1.950448 1.032057
vt 1.905562 3.416404
vt 1.905562 2.645619
vt 1.945885 2.645572
vt 1.945885 3.416356
vt 1.045836 0.078749
vt 1.892576 0.077754
vt 1.852741 0.119552
vt 1.088077 0.120451
vt 1.009786 1.010545
vt 0.050732 1.010545
vt -0.001875 0.957711
vt -0.001875 0.047365
vt 0.050732 -0.005468
vt 1.009786 -0.005468
vt 0.981086 2.794130
vt 0.981086 1.879777
vt 1.001920 1.900182
vt 1.001920 2.777037
vt 2.947855 -0.006759
vt 2.030515 -0.005681
vt 2.048512 -0.026992
vt 2.928231 -0.028026
vt 1.136966 -0.898047
vt 1.136980 -0.074755
vt 1.067329 -0.005152
vt 1.908021 -0.074755
vt 1.908007 -0.898047
vt 1.977675 -0.005152
vt 3.739594 1.010963
vt 4.510636 1.010976
vt 4.298391 1.050043
vt 3.951839 1.050037
vt 1.865239 2.540524
vt 1.865239 3.364250
vt 1.824876 3.364244
vt 1.824876 2.540519
vt 1.865239 3.311560
vt 1.865239 2.540518
vt 1.905431 2.540518
vt 1.905431 3.311560
vt 0.835549 2.850325
vt 0.835549 2.026551
vt 0.875913 2.026549
vt 0.875913 2.850323
vt 1.824876 1.922567
vt 1.897256 1.956383
vt 1.897256 2.377228
vt 3.739594 1.834255
vt 3.951839 1.667628
vt 4.510636 1.834268
vt 4.298391 1.667634
vt 2.541156 1.639757
vt 2.541156 1.293208
vt 2.870654 1.011033
vt 2.870654 1.921922
vt 3.951872 1.501714
vt 4.298425 1.501719
vt 1.977940 2.027657
vt 1.977940 2.645572
vt 1.905562 2.482283
vt 1.905562 2.061463
vt 3.726901 3.143416
vt 3.726901 2.796863
vt 3.802098 2.796863
vt 3.802098 3.143416
vt 2.947854 -0.111533
vt 2.947855 -1.022432
vt 3.800458 -1.022432
vt 3.800458 -0.111533
vt 2.120317 1.639724
vt 1.979088 1.921852
vt 2.120317 1.293176
vt 1.979088 1.010963
vt 3.812206 0.899420
vt 2.942974 0.899420
vt 2.942974 -0.005152
vt 3.812206 -0.005152
vt 1.979088 2.813529
vt 1.979088 1.921948
vt 2.835357 1.921922
vt 2.835357 2.813502
vt 4.161152 -0.005152
vt 4.161152 0.851117
vt 3.844131 0.814767
vt 3.830755 0.702561
vt 3.852145 0.613186
vt 3.812206 0.561514
vt 3.849951 0.416567
vt 3.900157 0.355012
vt 3.882020 0.235138
vt 3.819780 0.182711
vt 3.865345 0.076749
vt 3.726901 1.916334
vt 3.726901 2.807860
vt 2.870654 2.807739
vt 2.870654 1.916212
vt 1.689201 2.126967
vt 1.645965 1.937752
vt 1.792127 2.070698
vt 4.143301 -1.022432
vt 4.143301 -0.111543
vt 3.846329 -0.123332
vt 3.886173 -0.232255
vt 3.848781 -0.390389
vt 3.831772 -0.463285
vt 3.800458 -0.572024
vt 3.852092 -0.641396
vt 3.841775 -0.701732
vt 3.828452 -0.871396
vt 3.839712 -1.018974
vt 4.161152 0.905747
vt 4.161152 -0.005152
vt 4.482075 0.108073
vt 4.481857 0.150666
vt 4.466681 0.235761
vt 4.458258 0.355491
vt 4.446747 0.419853
vt 4.462834 0.567045
vt 4.472663 0.661973
vt 4.472260 0.756294
vt 4.478496 0.850551
vt 4.143301 -0.166185
vt 4.143301 -1.022432
vt 4.446756 -1.011205
vt 4.462658 -0.832391
vt 4.407992 -0.780035
vt 4.447735 -0.717494
vt 4.407749 -0.623252
vt 4.453822 -0.498513
vt 4.445640 -0.397793
vt 4.491072 -0.350250
vt 4.465384 -0.196438
vt 1.702550 2.449291
vt 1.666143 2.341048
vt 1.813789 2.368797
vt 1.806324 2.478530
vt 1.360800 2.515959
vt 1.331786 2.401110
vt 1.408175 2.398734
vt 1.450802 2.503103
vt 1.336842 2.055402
vt 1.314281 1.983002
vt 1.440664 1.972094
vt 1.411265 2.080623
vt 1.361117 2.284665
vt 1.270447 2.191396
vt 1.392119 2.157568
vt 1.414669 2.292907
vt 1.134805 2.237662
vt 1.103142 2.231701
vt 1.275515 2.171841
vt 1.233543 2.273683
vt 3.894928 0.948538
vt 3.901329 0.858461
vt 3.950416 0.851117
vt 3.950416 0.989143
vt 1.328197 2.721494
vt 1.286847 2.599531
vt 1.458879 2.622875
vt 1.420336 2.667898
vt 1.117629 2.686936
vt 1.137839 2.531921
vt 1.241676 2.586504
vt 1.242513 2.742935
vt 1.140429 2.538876
vt 1.172241 2.372550
vt 1.262302 2.376962
vt 1.231506 2.503892
vt 1.687078 2.654942
vt 1.748421 2.566964
vt 1.820230 2.551505
vt 1.791599 2.711332
vt 1.489787 2.646770
vt 1.524909 2.585742
vt 1.601608 2.590334
vt 1.634869 2.708829
vt 1.506538 2.459421
vt 1.491114 2.389662
vt 1.584829 2.394312
vt 1.618626 2.521312
vt 1.676365 2.281943
vt 1.654199 2.155240
vt 1.782347 2.240955
vt 1.805308 2.300966
vt 1.510169 2.268793
vt 1.471045 2.181485
vt 1.557677 2.234681
vt 1.586867 2.277919
vt 1.540009 2.052260
vt 1.534526 2.011616
vt 1.598867 2.012055
vt 1.552328 2.100864
vt 1.503016 2.782603
vt 1.623291 2.832801
vt 1.439343 2.787440
vt 1.672386 2.815153
vt 1.780464 2.819522
vt 1.037135 2.609761
vt 1.014503 2.515744
vt 1.078809 2.367059
vt 1.153129 2.804813
vt 1.243231 2.797757
vt 1.041433 2.798080
vt 1.047731 2.703790
vt 1.291852 2.751965
vt 1.148819 2.097032
vt 1.195200 2.123481
vt 1.034377 2.183743
vt 1.034351 2.098248
vt 1.014503 2.056229
vt 1.165277 2.007253
vt 1.076337 2.302465
vt 3.817937 0.987629
vt 3.812206 0.936850
vt 3.894928 0.851117
vt 3.894928 0.988961
vt 1.214160 1.988196
vt 1.611632 1.032491
vt 1.528660 1.032492
vt 1.014503 1.011667
vt 1.905562 1.011652
vt 1.528660 1.901724
vt 1.611632 1.901722
vt 1.905562 1.922551
vt 1.014503 1.922567
vt 0.981086 1.010545
vt 1.005873 1.010545
vt 1.005873 1.879777
vt 0.981086 1.916303
vt 0.898066 1.916303
vt 0.927147 1.010545
vt 0.951949 1.010545
vt 3.739594 1.916212
vt 2.870654 1.914467
vt 2.870654 1.010963
vt 3.739594 1.012709
vt 0.898066 1.916303
vt 0.981081 1.916303
vt 0.951845 2.822038
vt 0.927045 2.822038
vt 1.045836 0.926081
vt 1.892577 0.925086
vt 1.014503 0.047431
vt 1.852741 0.884750
vt 1.088077 0.885649
vt 1.905562 2.027653
vt 1.950448 1.011656
vt 1.950448 2.027657
vt 0.916386 -0.050359
vt 0.916386 -0.923594
vt 2.897264 0.092678
vt 2.023977 0.092678
vt 2.897293 1.010963
vt 2.942180 1.010963
vt 0.043012 1.010548
vt 0.043012 2.026549
vt -0.001875 2.026546
vt -0.001875 1.010545
vt -0.001875 -0.923724
vt -0.001875 -0.050489
vt -0.001875 -0.005605
vt 2.024005 1.010963
vt 1.979118 1.010963
vt -0.001875 2.026669
vt 0.835549 2.026550
vt 0.835549 2.907152
vt -0.001875 2.907271
vt 4.564374 2.796863
vt 3.726901 2.796838
vt 3.726901 1.916212
vt 4.564374 1.916238
vt 0.898066 2.005871
vt 0.060606 2.005805
vt 0.060606 1.031471
vt 0.898066 1.031537
vt 0.898066 2.026549
vt 0.898066 2.899823
vt 0.877321 2.882230
vt 0.877321 2.044771
vt 2.030515 -1.021354
vt 2.947854 -1.022432
vt 2.928230 -1.002045
vt 2.048512 -1.001012
vt 2.835357 2.795196
vt 2.856279 1.940139
vt 2.856279 2.777600
s 0
g Cube_frame
f 141/1/1 132/2/1 17/3/1
f 20/4/2 130/5/2 142/6/2
f 17/7/3 18/8/3 140/9/3 141/10/3
f 142/11/4 143/12/4 19/13/4 20/14/4
f 130/15/5 131/16/5 144/17/5 142/18/5
f 132/2/6 130/5/6 20/4/6 17/3/6
f 131/16/7 133/19/7 145/20/7 144/17/7
f 133/21/8 132/22/8 141/10/8 145/23/8
f 10/24/9 16/25/9 148/26/9 152/27/9
f 11/28/10 7/29/10 22/30/10 23/31/10
f 4/32/11 13/33/11 137/34/11 136/35/11
f 138/36/12 140/37/12 18/38/12 19/39/12 143/40/12 139/41/12
f 14/42/13 3/43/13 151/44/13 147/45/13
f 2/46/14 12/47/14 153/48/14 149/49/14
f 5/50/15 7/51/15 18/52/15 17/3/15
f 11/53/15 8/54/15 20/4/15 19/55/15
f 8/54/15 5/50/15 17/3/15 20/4/15
f 7/51/15 11/53/15 19/55/15 18/52/15
g Cube_metal
f 21/56/15 24/57/15 28/58/15 25/59/15
g Cube_frame
f 8/60/16 11/61/16 23/62/16 24/63/16
f 5/64/12 8/65/12 24/66/12 21/67/12
f 7/68/17 5/69/17 21/70/17 22/71/17
g Cube_metal
f 26/63/17 25/72/17 29/73/17 30/74/17
f 22/75/15 21/56/15 25/59/15 26/76/15
f 23/77/15 22/75/15 26/76/15 27/78/15
f 24/57/15 23/77/15 27/78/15 28/58/15
g Cube_frame
f 31/79/18 30/80/18 34/81/18 35/82/18
g Cube_metal
f 27/78/19 26/76/19 30/83/19 31/84/19
f 28/85/16 27/86/16 31/87/16 32/88/16
f 25/89/20 28/90/20 32/91/20 29/92/20
f 33/93/12 36/94/12 125/95/12 122/96/12
f 32/97/21 31/79/21 35/82/21 36/98/21
f 29/99/22 32/97/22 36/98/22 33/100/22
f 30/80/23 29/99/23 33/100/23 34/81/23
g Cube_frame
f 39/101/24 38/102/24 127/103/24 128/104/24
g Cube_metal
f 34/105/17 33/106/17 122/107/17 123/108/17
g Cube_coals
f 124/109/25 35/110/25 41/111/25 69/112/25 53/113/25 81/114/25 48/115/25 73/116/25 57/117/25 85/118/25 43/119/25
g Cube_metal
f 36/120/16 35/121/16 124/122/16 125/123/16
g Cube_coals
f 121/124/26 84/125/26 44/72/26 67/126/26
f 123/127/27 124/128/27 43/129/27 83/130/27 55/131/27 71/132/27 46/133/27 79/134/27 51/135/27 67/136/27 44/137/27
f 35/138/28 34/139/28 42/140/28 66/141/28 50/142/28 78/143/28 45/144/28 70/145/28 54/146/28 82/147/28 41/148/28
f 34/149/29 123/150/29 44/151/29 84/152/29 56/153/29 72/154/29 47/155/29 80/156/29 52/157/29 68/158/29 42/159/29
f 120/160/30 74/161/30 46/162/30 71/163/30
f 119/164/31 75/165/31 49/166/31 88/167/31
f 118/168/32 80/169/32 47/170/32 89/171/32
f 117/172/33 90/173/33 61/174/33 77/175/33
f 116/176/34 91/177/34 62/178/34 92/179/34
f 115/180/35 68/181/35 52/182/35 93/183/35
f 114/184/36 94/185/36 60/186/36 76/187/36
f 113/188/37 95/189/37 63/190/37 96/191/37
f 112/192/38 87/193/38 59/194/38 97/195/38
f 111/196/39 98/197/39 55/198/39 83/199/39
f 110/200/40 99/201/40 64/202/40 100/203/40
f 109/204/41 86/205/41 58/206/41 101/207/41
f 108/208/42 102/209/42 51/210/42 79/211/42
f 107/212/43 103/213/43 65/214/43 104/215/43
f 106/216/44 72/217/44 56/218/44 105/219/44
f 103/213/45 106/216/45 105/219/45 65/214/45
f 61/174/46 89/171/46 106/216/46 103/213/46
f 89/171/47 47/170/47 72/217/47 106/216/47
f 86/205/48 107/212/48 104/215/48 58/206/48
f 49/166/49 77/175/49 107/212/49 86/205/49
f 77/175/50 61/174/50 103/213/50 107/212/50
f 74/161/51 108/208/51 79/211/51 46/162/51
f 58/206/52 104/215/52 108/208/52 74/161/52
f 104/215/53 65/214/53 102/209/53 108/208/53
f 99/201/54 109/204/54 101/207/54 64/202/54
f 60/186/55 88/167/55 109/204/55 99/201/55
f 88/167/56 49/166/56 86/205/56 109/204/56
f 73/220/57 110/200/57 100/203/57 57/221/57
f 48/222/58 76/187/58 110/200/58 73/220/58
f 76/187/59 60/186/59 99/201/59 110/200/59
f 85/223/60 111/196/60 83/199/60 43/224/60
f 57/221/61 100/203/61 111/196/61 85/223/61
f 100/203/62 64/202/62 98/197/62 111/196/62
f 95/189/63 112/192/63 97/195/63 63/190/63
f 54/225/64 70/226/64 112/192/64 95/189/64
f 70/226/65 45/227/65 87/193/65 112/192/65
f 69/228/66 113/188/66 96/191/66 53/229/66
f 41/230/67 82/231/67 113/188/67 69/228/67
f 82/231/68 54/225/68 95/189/68 113/188/68
f 81/232/69 114/184/69 76/187/69 48/222/69
f 53/229/70 96/191/70 114/184/70 81/232/70
f 96/191/71 63/190/71 94/185/71 114/184/71
f 91/177/72 115/233/72 93/234/72 62/178/72
f 50/235/73 66/236/73 115/233/73 91/177/73
f 66/236/74 42/237/74 68/238/74 115/233/74
f 87/193/75 116/176/75 92/179/75 59/194/75
f 45/227/76 78/239/76 116/176/76 87/193/76
f 78/239/77 50/235/77 91/177/77 116/176/77
f 75/165/78 117/172/78 77/175/78 49/166/78
f 59/194/79 92/179/79 117/172/79 75/165/79
f 92/179/80 62/178/80 90/173/80 117/172/80
f 90/173/81 118/168/81 89/171/81 61/174/81
f 62/240/82 93/241/82 118/242/82 90/243/82
f 93/234/83 52/244/83 80/169/83 118/168/83
f 94/185/84 119/164/84 88/167/84 60/186/84
f 63/190/85 97/195/85 119/164/85 94/185/85
f 97/195/86 59/194/86 75/165/86 119/164/86
f 98/197/87 120/160/87 71/163/87 55/198/87
f 64/202/88 101/207/88 120/160/88 98/197/88
f 101/207/89 58/206/89 74/161/89 120/160/89
f 102/209/90 121/124/90 67/126/90 51/210/90
f 65/214/91 105/219/91 121/124/91 102/209/91
f 105/219/92 56/218/92 84/125/92 121/124/92
g Cube_metal
f 37/245/15 38/246/15 123/247/15 122/248/15
f 39/249/15 40/250/15 125/251/15 124/252/15
f 40/250/15 37/245/15 122/248/15 125/251/15
f 38/246/15 39/249/15 124/252/15 123/247/15
g Cube_frame
f 127/253/15 126/254/15 129/255/15 128/43/15
g Cube_metal
f 40/256/17 39/257/17 128/258/17 129/259/17
g Cube_frame
f 37/260/93 40/261/93 129/262/93 126/263/93
g Cube_metal
f 38/264/16 37/265/16 126/266/16 127/267/16
g Cube_frame
f 9/268/10 15/269/10 131/16/10 130/15/10
f 4/32/10 9/268/10 130/15/10 132/270/10
f 15/269/10 13/33/10 133/19/10 131/16/10
f 13/33/10 4/32/10 132/270/10 133/19/10
g Cube_metal
f 136/35/10 137/34/10 135/271/10 134/272/10
g Cube_frame
f 9/268/94 4/32/94 136/35/94 134/272/94
f 13/33/95 15/269/95 135/271/95 137/34/95
f 15/269/96 9/268/96 134/272/96 135/271/96
f 2/273/97 1/248/97 138/274/97 139/275/97
f 6/276/16 3/277/16 141/10/16 140/9/16
f 10/278/17 12/279/17 143/12/17 142/11/17
f 16/280/17 10/278/17 142/11/17 144/281/17
f 14/282/97 16/283/97 144/284/97 145/285/97
f 3/277/16 14/286/16 145/23/16 141/10/16
f 1/287/16 6/276/16 140/9/16 138/288/16
f 12/279/17 2/289/17 139/290/17 143/12/17
g Cube_metal
f 146/291/16 147/292/16 151/293/16 150/294/16
f 153/295/17 152/296/17 148/297/17 149/298/17
f 149/299/97 148/300/97 147/301/97 146/302/97
g Cube_frame
f 3/303/98 6/304/98 150/305/98 151/306/98
f 6/307/99 1/308/99 146/309/99 150/310/99
f 16/283/100 14/282/100 147/301/100 148/300/100
f 12/311/101 10/107/101 152/312/101 153/313/101
f 1/308/102 2/46/102 149/49/102 146/309/102
