# Blender 4.5.3 LTS
# www.blender.org
o Cube
v -0.485013 0.485013 -0.475000
v -0.485013 -0.485013 -0.475000
v 0.485013 0.485013 -0.475000
v 0.485013 -0.485013 -0.475000
v -0.500000 0.500000 0.500000
v -0.500000 -0.500000 0.500000
v 0.500000 0.500000 0.500000
v 0.500000 -0.500000 0.500000
v -0.500000 0.500000 -0.475000
v -0.500000 -0.500000 -0.475000
v 0.500000 0.500000 -0.475000
v 0.500000 -0.500000 -0.475000
v -0.214382 0.214382 -0.424296
v -0.214382 -0.214382 -0.424296
v 0.214382 0.214382 -0.424296
v 0.214382 -0.214382 -0.424296
v -0.485013 0.485013 -0.443257
v -0.485013 -0.485013 -0.443257
v 0.485013 0.485013 -0.443257
v 0.485013 -0.485013 -0.443257
v -0.462684 0.462684 -0.424296
v -0.462684 -0.462684 -0.424296
v 0.462684 0.462684 -0.424296
v 0.462684 -0.462684 -0.424296
v -0.214382 0.214382 -0.481354
v -0.195736 0.195737 -0.500000
v -0.195736 -0.195737 -0.500000
v -0.214382 -0.214382 -0.481354
v 0.195737 0.195737 -0.500000
v 0.214382 0.214382 -0.481354
v 0.214382 -0.214382 -0.481354
v 0.195737 -0.195737 -0.500000
vn -0.0000 1.0000 -0.0000
vn 1.0000 -0.0000 -0.0000
vn -0.0000 -0.0000 1.0000
vn -0.0000 -1.0000 -0.0000
vn -1.0000 -0.0000 -0.0000
vn -0.0000 -0.0000 -1.0000
vn 0.6473 -0.0000 -0.7622
vn -0.6473 -0.0000 -0.7622
vn -0.0000 -0.6473 -0.7622
vn -0.0000 0.6473 -0.7622
vn -0.7071 -0.0000 -0.7071
vn 0.7071 -0.0000 -0.7071
vn -0.0000 0.7071 -0.7071
vn -0.0000 -0.7071 -0.7071
vt 0.996523 0.015089
vt 0.021729 0.015089
vt 0.021729 -0.984700
vt 0.996523 -0.984700
vt 0.021729 1.014879
vt 0.021729 0.015089
vt 0.996523 1.014879
vt 0.021729 0.015090
vt -0.978061 0.015089
vt -0.978060 -0.984700
vt 0.021729 -0.984700
vt 1.971318 0.015089
vt 0.996523 0.015089
vt 0.996523 -0.984700
vt 1.971318 -0.984700
vt 0.420435 1.984700
vt 0.420435 1.014879
vt 0.452171 1.014879
vt 0.452171 1.984700
vt 1.971318 0.015089
vt 1.971318 1.014879
vt -0.963076 0.999895
vt 0.006745 0.999895
vt 0.021729 1.014879
vt -0.978061 1.014879
vt 0.006745 0.030074
vt -0.963076 0.030074
vt -0.978060 0.015090
vt 0.021729 0.015090
vt 0.452171 1.984700
vt 0.452171 1.014879
vt 0.483907 1.014879
vt 0.483907 1.984700
vt 0.515643 1.014879
vt 0.515643 1.984700
vt 0.483907 1.984700
vt 0.483907 1.014879
vt 0.547378 1.014879
vt 0.547378 1.984700
vt -0.955737 1.962376
vt -0.030564 1.962376
vt -0.008240 1.984700
vt -0.978061 1.984700
vt -0.030564 1.037203
vt -0.955736 1.037203
vt -0.978060 1.014879
vt -0.008240 1.014879
vt -0.707487 1.714127
vt -0.278813 1.714127
vt -0.278813 1.285452
vt -0.707487 1.285452
vt 0.010402 1.424911
vt 0.401793 1.424911
vt 0.420435 1.443554
vt -0.008240 1.443554
vt -0.008240 1.014879
vt 0.420435 1.014879
vt 0.401793 1.033521
vt 0.010402 1.033521
vt 0.547378 1.443554
vt 0.604424 1.014879
vt 0.604424 1.443554
vt 0.995438 1.004220
vt -0.001215 1.004220
vt -0.001215 0.007567
vt 0.995438 0.007568
vt 0.661470 1.014879
vt 0.661470 1.443554
vt 0.718516 1.014879
vt 0.718516 1.443554
vt 0.775562 1.014879
vt 0.775562 1.443554
vt 0.718516 1.443554
vt 0.718516 1.014879
s 0
g Cube_frame
f 9/1/1 5/2/1 7/3/1 11/4/1
f 12/5/2 11/6/2 7/1/2 8/7/2
f 8/8/3 7/9/3 5/10/3 6/11/3
f 6/12/4 10/13/4 12/14/4 8/15/4
f 1/16/4 3/17/4 19/18/4 17/19/4
f 6/7/5 5/1/5 9/20/5 10/21/5
f 1/22/6 2/23/6 10/24/6 9/25/6
f 4/26/6 3/27/6 11/28/6 12/29/6
f 3/27/6 1/22/6 9/25/6 11/28/6
f 2/23/6 4/26/6 12/29/6 10/24/6
f 2/30/2 1/31/2 17/32/2 18/33/2
f 4/34/1 2/35/1 18/36/1 20/37/1
f 3/38/5 4/39/5 20/35/5 19/34/5
g Cube_metal
f 21/40/7 22/41/7 18/42/7 17/43/7
f 24/44/8 23/45/8 19/46/8 20/47/8
f 23/45/9 21/40/9 17/43/9 19/46/9
f 22/41/10 24/44/10 20/47/10 18/42/10
f 13/48/6 14/49/6 22/41/6 21/40/6
f 16/50/6 15/51/6 23/45/6 24/44/6
f 15/51/6 13/48/6 21/40/6 23/45/6
f 14/49/6 16/50/6 24/44/6 22/41/6
g Cube_wood
f 26/52/11 27/53/11 28/54/11 25/55/11
f 30/56/12 31/57/12 32/58/12 29/59/12
f 25/55/13 30/56/13 29/59/13 26/52/13
f 31/57/14 28/54/14 27/53/14 32/58/14
f 14/60/5 13/38/5 25/61/5 28/62/5
g Cube_button
f 27/63/6 26/64/6 29/65/6 32/66/6
g Cube_wood
f 13/62/1 15/61/1 30/67/1 25/68/1
f 16/69/4 14/70/4 28/68/4 31/67/4
f 15/71/2 16/72/2 31/73/2 30/74/2
